PathFileType	4	(X/Y/Z)	/Users/itak/Documents/Research/Walk-IL/dataset/trc/00427_00167.trc
DataRate	CameraRate	NumFrames	NumMarkers	Units	OrigDataRate	OrigDataStartFrame	OrigNumFrames
100.000000	100.000000	4	53	mm	100.000000	81	651
Frame#	Time	RPSI			LPSI			L3			STRN			T10			C7			CLAV			RBAK			LBAK			LSHO			LUPA			LAEL			LAOL			LWTS			LWPS			LFRA			LIFD			LHPS			LHTS			RSHO			RUPA			RAEL			RAOL			RWTS			RWPS			RFRA			RIFD			RHTS			RHPS			RBHD			LFHD			RFHD			LBHD			LHIP			RHIP			RASI			LASI			LKNE			LTHI			LANK			LTIP			LTOE			LMT1			LMT5			LHEE			RKNE			RTHI			RANK			RTIP			RTOE			RMT1			RMT5			RHEE			
		X1	Y1	Z1	X2	Y2	Z2	X3	Y3	Z3	X4	Y4	Z4	X5	Y5	Z5	X6	Y6	Z6	X7	Y7	Z7	X8	Y8	Z8	X9	Y9	Z9	X10	Y10	Z10	X11	Y11	Z11	X12	Y12	Z12	X13	Y13	Z13	X14	Y14	Z14	X15	Y15	Z15	X16	Y16	Z16	X17	Y17	Z17	X18	Y18	Z18	X19	Y19	Z19	X20	Y20	Z20	X21	Y21	Z21	X22	Y22	Z22	X23	Y23	Z23	X24	Y24	Z24	X25	Y25	Z25	X26	Y26	Z26	X27	Y27	Z27	X28	Y28	Z28	X29	Y29	Z29	X30	Y30	Z30	X31	Y31	Z31	X32	Y32	Z32	X33	Y33	Z33	X34	Y34	Z34	X35	Y35	Z35	X36	Y36	Z36	X37	Y37	Z37	X38	Y38	Z38	X39	Y39	Z39	X40	Y40	Z40	X41	Y41	Z41	X42	Y42	Z42	X43	Y43	Z43	X44	Y44	Z44	X45	Y45	Z45	X46	Y46	Z46	X47	Y47	Z47	X48	Y48	Z48	X49	Y49	Z49	X50	Y50	Z50	X51	Y51	Z51	X52	Y52	Z52	X53	Y53	Z53	

82	0.8100000000000001	-1187.470825195312	969.9047241210938	-487.8303833007812	-1104.3564453125	967.71630859375	-602.028076171875	-1146.402221679688	1062.512939453125	-530.183837890625	-925.3634643554688	1253.172973632812	-394.503662109375	-1162.980224609375	1186.209350585938	-549.157470703125	-1119.3544921875	1455.431274414062	-505.2095642089844	-955.1860961914062	1366.170654296875	-418.3895568847656	-1221.4404296875	1334.532592773438	-454.6648559570312	-1086.150390625	1407.158203125	-608.3834228515625	-954.4775390625	1423.6767578125	-613.2133178710938	-895.29150390625	1302.826538085938	-693.4779663085938	-849.7944946289062	1083.042846679688	-688.096923828125	-951.7879638671875	1066.45654296875	-695.2928466796875	-819.8148193359375	885.0258178710938	-588.333984375	-814.4390869140625	865.468017578125	-659.6392211914062	-826.4022827148438	995.9569702148438	-675.16357421875	-800.96728515625	721.3732299804688	-580.3243408203125	-811.3902587890625	784.8987426757812	-650.0149536132812	-802.5173950195312	795.5114135742188	-580.1544799804688	-1140.29443359375	1417.779663085938	-328.2283630371094	-1189.516967773438	1354.173217773438	-268.2664794921875	-1187.623168945312	1064.697509765625	-207.7862854003906	-1222.725708007812	1046.401245117188	-262.7448120117188	-1067.016845703125	869.1669921875	-214.3853302001953	-1147.454833984375	848.9822998046875	-185.1853485107422	-1184.03759765625	1006.267456054688	-197.3151397705078	-1059.12353515625	710.0780639648438	-206.7273712158203	-1051.783081054688	770.0242309570312	-196.4927215576172	-1125.442749023438	762.9987182617188	-180.6051025390625	-1105.973510742188	1645.683471679688	-396.8057861328125	-909.5922241210938	1675.19873046875	-458.9359130859375	-979.776123046875	1677.71826171875	-348.087158203125	-1024.452392578125	1644.855102539062	-555.379150390625	-928.5037841796875	857.7021484375	-619.3645629882812	-1174.666625976562	863.0943603515625	-306.7423706054688	-1052.8076171875	902.9356079101562	-295.3192138671875	-892.1551513671875	896.760986328125	-498.3555603027344	-969.4857788085938	434.480712890625	-577.4446411132812	-927.6411743164062	585.9555053710938	-585.5438842773438	-1039.1943359375	35.37585830688477	-594.966064453125	-975.4720458984375	282.5570983886719	-580.862060546875	-902.20751953125	45.65957641601562	-406.0365905761719	-978.50439453125	49.58078765869141	-428.1068115234375	-911.8505249023438	47.35349273681641	-518.3509521484375	-1113.86669921875	35.72028732299805	-587.9710083007812	-1140.018676757812	463.5380859375	-329.2977294921875	-1142.423583984375	726.0184936523438	-276.1305847167969	-1167.370361328125	43.6694221496582	-365.8256530761719	-1150.270751953125	318.0469360351562	-324.7926940917969	-961.4651489257812	48.10525131225586	-289.6097106933594	-995.2338256835938	53.00122451782227	-353.760009765625	-1067.390258789062	49.16462707519531	-273.0070495605469	-1197.634399414062	34.03364181518555	-441.4909057617188	
83	0.8200000000000001	-1187.47802734375	969.8519287109375	-487.8989868164062	-1104.430908203125	967.7086181640625	-602.0900268554688	-1146.45654296875	1062.474853515625	-530.2332153320312	-925.41748046875	1253.221069335938	-394.6366882324219	-1163.072387695312	1186.18359375	-549.1944580078125	-1119.49169921875	1455.399658203125	-505.3006896972656	-955.235107421875	1366.1875	-418.5519409179688	-1221.523071289062	1334.495239257812	-454.6835327148438	-1086.272705078125	1407.113403320312	-608.465576171875	-954.6301879882812	1423.650756835938	-613.3693237304688	-895.4876708984375	1302.803100585938	-693.68701171875	-850.035888671875	1083.081298828125	-688.4219360351562	-952.1452026367188	1066.539794921875	-695.4747924804688	-819.9110717773438	884.9871826171875	-588.7396240234375	-814.5227661132812	865.5189208984375	-660.08203125	-826.4791259765625	995.989990234375	-675.5127563476562	-803.0150146484375	720.5222778320312	-580.5661010742188	-811.45361328125	784.91845703125	-650.42724609375	-802.4841918945312	795.4859008789062	-580.6054077148438	-1140.346923828125	1417.771850585938	-328.3126525878906	-1189.534545898438	1354.208251953125	-268.3164978027344	-1187.705810546875	1064.795776367188	-207.6019744873047	-1222.829833984375	1046.471557617188	-262.55517578125	-1067.210205078125	869.1713256835938	-214.0852661132812	-1147.645263671875	849.0935668945312	-184.8547515869141	-1184.13232421875	1006.387573242188	-197.1116638183594	-1059.445678710938	710.1041870117188	-206.2339324951172	-1052.0546875	770.0646362304688	-196.1088714599609	-1125.7529296875	763.11572265625	-180.1547546386719	-1105.894287109375	1645.752197265625	-396.81884765625	-909.56201171875	1675.041137695312	-459.0595397949219	-979.6646118164062	1677.590698242188	-348.1656799316406	-1024.451416015625	1644.904907226562	-555.4893188476562	-928.5556030273438	857.7969360351562	-619.4273681640625	-1174.70947265625	863.0985717773438	-306.7647705078125	-1052.910888671875	902.9610595703125	-295.4244995117188	-892.134521484375	896.851318359375	-498.3916931152344	-969.2721557617188	434.5010681152344	-577.2875366210938	-927.478759765625	585.98828125	-585.4402465820312	-1039.205932617188	35.38413238525391	-594.9617919921875	-975.3609619140625	282.5852661132812	-580.7717895507812	-902.27099609375	45.67601776123047	-406.0012512207031	-978.5675659179688	49.55865859985352	-428.0822448730469	-911.9617919921875	47.45246887207031	-518.32421875	-1113.86181640625	35.69756317138672	-588.004638671875	-1140.03564453125	463.5696716308594	-329.2391052246094	-1142.488525390625	726.03271484375	-276.0486755371094	-1167.379760742188	43.63481903076172	-365.8335571289062	-1150.257690429688	318.0254516601562	-324.7226257324219	-961.4707641601562	48.11430358886719	-289.6174621582031	-995.2348022460938	53.00017929077148	-353.7630920410156	-1067.391967773438	49.16433334350586	-273.005126953125	-1197.650756835938	34.01659393310547	-441.4754943847656	
84	0.8300000000000001	-1187.47900390625	969.7994995117188	-487.9613952636719	-1104.486450195312	967.6873779296875	-602.14794921875	-1146.503540039062	1062.435668945312	-530.2813110351562	-925.4487915039062	1253.27099609375	-394.7862854003906	-1163.15234375	1186.162109375	-549.226806640625	-1119.617431640625	1455.367431640625	-505.3891906738281	-955.2816772460938	1366.2060546875	-418.7059326171875	-1221.593139648438	1334.460571289062	-454.6993103027344	-1086.39599609375	1407.064086914062	-608.549072265625	-954.76220703125	1423.62890625	-613.52587890625	-895.6921997070312	1302.78564453125	-693.9033203125	-850.2660522460938	1083.10595703125	-688.7338256835938	-952.4765625	1066.626586914062	-695.6466674804688	-820.0040283203125	884.958740234375	-589.1424560546875	-814.5950317382812	865.5785522460938	-660.5217895507812	-826.5546875	996.0194091796875	-675.8551635742188	-805.5858764648438	719.4912719726562	-580.8052368164062	-811.4671020507812	784.945068359375	-650.8211669921875	-802.4635009765625	795.4515991210938	-581.0455322265625	-1140.380615234375	1417.76416015625	-328.3910217285156	-1189.535766601562	1354.240112304688	-268.361083984375	-1187.764770507812	1064.883911132812	-207.4373779296875	-1222.93408203125	1046.533081054688	-262.3598327636719	-1067.37353515625	869.1650390625	-213.8392791748047	-1147.8310546875	849.190673828125	-184.5322265625	-1184.211791992188	1006.494201660156	-196.9146118164062	-1059.7333984375	710.1251831054688	-205.8158874511719	-1052.29150390625	770.099853515625	-195.7916717529297	-1126.035766601562	763.2158203125	-179.7468414306641	-1105.82861328125	1645.8212890625	-396.8272705078125	-909.5468139648438	1674.882690429688	-459.1734619140625	-979.552490234375	1677.47265625	-348.2399597167969	-1024.456787109375	1644.952758789062	-555.593994140625	-928.6331176757812	857.9208374023438	-619.4930419921875	-1174.74267578125	863.1033325195312	-306.7813720703125	-1053.013305664062	902.9945678710938	-295.53466796875	-892.1011352539062	896.9468994140625	-498.432373046875	-969.0496215820312	434.5335998535156	-577.1248168945312	-927.3224487304688	586.01513671875	-585.337646484375	-1039.218627929688	35.39290618896484	-594.953857421875	-975.2453002929688	282.6112976074219	-580.68212890625	-902.3333129882812	45.69078826904297	-405.9592895507812	-978.626220703125	49.53439712524414	-428.0576477050781	-912.0720825195312	47.54238510131836	-518.2919921875	-1113.860229492188	35.68129348754883	-588.0279541015625	-1140.046142578125	463.6059265136719	-329.1724853515625	-1142.545654296875	726.0545654296875	-275.957763671875	-1167.390258789062	43.59994506835938	-365.8395690917969	-1150.247924804688	318.004150390625	-324.6379089355469	-961.4795532226562	48.12431335449219	-289.624267578125	-995.2390747070312	52.99922561645508	-353.7659606933594	-1067.3955078125	49.16294860839844	-273.0052490234375	-1197.669799804688	33.99870681762695	-441.4580383300781	
85	0.84	-1187.475219726562	969.7476806640625	-488.0174560546875	-1104.5283203125	967.6570434570312	-602.2025146484375	-1146.541259765625	1062.397827148438	-530.3304443359375	-925.4571533203125	1253.320678710938	-394.9512023925781	-1163.218383789062	1186.144287109375	-549.2582397460938	-1119.730712890625	1455.332885742188	-505.4761962890625	-955.3274536132812	1366.226440429688	-418.8494567871094	-1221.649291992188	1334.429931640625	-454.7156372070312	-1086.517211914062	1407.013671875	-608.6357421875	-954.8737182617188	1423.611694335938	-613.683837890625	-895.8999633789062	1302.776000976562	-694.126708984375	-850.4766845703125	1083.114135742188	-689.0280151367188	-952.7603149414062	1066.704223632812	-695.8095092773438	-820.071044921875	884.9475708007812	-589.537109375	-814.6598510742188	865.6353149414062	-660.9578857421875	-826.6388549804688	996.0427856445312	-676.1884765625	-808.3525390625	718.3960571289062	-581.0560913085938	-811.4330444335938	784.9803466796875	-651.2081298828125	-802.4544067382812	795.4076538085938	-581.4737548828125	-1140.395385742188	1417.757934570312	-328.4653625488281	-1189.521606445312	1354.268920898438	-268.4028625488281	-1187.79931640625	1064.963256835938	-207.2961273193359	-1223.0341796875	1046.587158203125	-262.1646423339844	-1067.50634765625	869.1505126953125	-213.6484069824219	-1148.01171875	849.2737426757812	-184.2226867675781	-1184.275756835938	1006.586791992188	-196.728271484375	-1059.985107421875	710.1416015625	-205.4748992919922	-1052.490844726562	770.1287841796875	-195.5405578613281	-1126.28369140625	763.2997436523438	-179.3941497802734	-1105.775634765625	1645.888061523438	-396.8353881835938	-909.5481567382812	1674.729736328125	-459.2783508300781	-979.442626953125	1677.368896484375	-348.3092346191406	-1024.469970703125	1644.996826171875	-555.693359375	-928.7431640625	858.0806274414062	-619.5589599609375	-1174.765625	863.1084594726562	-306.7930297851562	-1053.111206054688	903.034912109375	-295.6493530273438	-892.0538940429688	897.0473022460938	-498.4774169921875	-968.8209228515625	434.5769348144531	-576.9579467773438	-927.1749267578125	586.0359497070312	-585.2355346679688	-1039.2314453125	35.40185546875	-594.9432373046875	-975.126220703125	282.6326293945312	-580.5941162109375	-902.393798828125	45.70356750488281	-405.9106750488281	-978.6785888671875	49.50899887084961	-428.0333251953125	-912.1763916015625	47.62260437011719	-518.2557373046875	-1113.861450195312	35.67127990722656	-588.0416870117188	-1140.0517578125	463.6453857421875	-329.1015930175781	-1142.592529296875	726.0822143554688	-275.8641662597656	-1167.402954101562	43.56591415405273	-365.8428344726562	-1150.246215820312	317.9833984375	-324.5394287109375	-961.4913330078125	48.13440704345703	-289.6303100585938	-995.2470092773438	52.99844360351562	-353.7689208984375	-1067.400268554688	49.1606330871582	-273.0070495605469	-1197.692016601562	33.97987747192383	-441.4386596679688	
